<svg xmlns="http://www.w3.org/2000/svg" version="1.1" xmlns:xlink="http://www.w3.org/1999/xlink" xmlns:svgjs="http://svgjs.dev/svgjs" width="2000" height="641" viewBox="0 0 2000 641"><g transform="matrix(1,0,0,1,-1.2121212121212466,0.5538477147443928)"><svg viewBox="0 0 396 127" data-background-color="#ffffff" preserveAspectRatio="xMidYMid meet" height="641" width="2000" xmlns="http://www.w3.org/2000/svg" xmlns:xlink="http://www.w3.org/1999/xlink"><g id="tight-bounds" transform="matrix(1,0,0,1,0.2400000000000091,-0.10973269855310264)"><svg viewBox="0 0 395.52 127.21946539710623" height="127.21946539710623" width="395.52"><g><svg viewBox="0 0 768.5344667564052 247.2" height="127.21946539710623" width="395.52"><g transform="matrix(1,0,0,1,390.2901072917781,0)"><svg viewBox="0 0 378.2443594646271 247.2" height="247.2" width="378.2443594646271"><g id="textblocktransform"><svg viewBox="0 0 378.2443594646271 247.2" height="247.2" width="378.2443594646271" id="textblock"><g><svg viewBox="0 0 378.2443594646271 247.2" height="247.2" width="378.2443594646271"><g transform="matrix(1,0,0,1,0,0)"><svg width="378.2443594646271" viewBox="-6.1 -35.45 78.14 51.080000000000005" height="247.2" data-palette-color="#ff4057"><path d="M14.72-34.23L14.72-33.64Q14.72-33.45 13.72-33.45 12.72-33.45 11.74-32.75 10.77-32.06 10.77-29.96L10.77-29.96 10.77 0.24Q10.77 5.69 7.67 10.38L7.67 10.38Q5.54 13.62 2.34 14.94L2.34 14.94Q0.71 15.63-1.04 15.63-2.78 15.63-4.44 14.84-6.1 14.06-6.1 13.09-6.1 12.11-5.32 11.46-4.54 10.82-3.71 10.82-2.88 10.82-2.34 10.99-1.81 11.16-1.4 11.41-1 11.67-0.7 11.98-0.39 12.28 0.16 12.71 0.71 13.13 1.66 13.13L1.66 13.13Q3.54 13.13 4.53 11.56 5.52 9.99 5.76 7.85 6.01 5.71 6.01 2.44L6.01 2.44 6.01-30.52Q6.01-32.98 3.25-33.35L3.25-33.35Q2.37-33.45 1.27-33.45L1.27-33.45Q1.07-33.45 1.07-33.64L1.07-33.64 1.07-34.23Q1.07-34.42 1.27-34.42L1.27-34.42 14.53-34.42Q14.72-34.42 14.72-34.23L14.72-34.23ZM36.15-33.96L37.52-34.13Q37.77-34.13 37.77-33.59L37.77-33.59 38.4-28.39Q38.5-27.91 38.5-27.77 38.5-27.64 38.12-27.64 37.74-27.64 37.64-27.73 37.55-27.83 37.45-28.06 37.35-28.3 37.22-28.59 37.08-28.88 36.94-29.17L36.94-29.17Q36.42-30.3 35.32-31.4L35.32-31.4Q32.64-33.98 29.27-33.98L29.27-33.98Q27.24-33.98 25.44-32.67 23.63-31.35 23.63-29.55 23.63-27.76 24.3-26.44 24.97-25.12 26.07-24 27.17-22.88 28.59-21.85 30-20.83 31.47-19.78L31.47-19.78Q35.35-17.07 36.98-15.14L36.98-15.14Q39.55-12.16 39.77-8.45L39.77-8.45Q39.77-4.3 36.58-1.82 33.4 0.66 29.17 0.66L29.17 0.66Q26.46 0.66 24.86 0.11 23.26-0.44 22.65-0.68 22.04-0.93 21.76-0.93 21.48-0.93 21.41-0.9L21.41-0.9 20.21-0.66Q19.89-0.66 19.82-1.17L19.82-1.17Q19.11-7.23 19.11-7.6 19.11-7.98 19.17-8.12 19.24-8.25 19.5-8.25L19.5-8.25Q20.19-8.25 20.75-6.3L20.75-6.3Q23.31-0.81 29.27-0.81L29.27-0.81Q32-0.81 33.95-2.47 35.89-4.13 35.89-6.79L35.89-6.79Q35.89-11.04 30.81-14.7L30.81-14.7Q29.37-15.72 26.66-17.55 23.95-19.38 22.34-21.22L22.34-21.22Q19.82-24.05 19.82-27.53 19.82-31.01 22.59-33.23 25.36-35.45 28.95-35.45L28.95-35.45Q30.81-35.45 33.04-34.81 35.28-34.18 36.15-33.96L36.15-33.96ZM67.77 0L43.13 0Q42.94 0 42.94-0.2L42.94-0.2 42.94-0.78Q42.94-0.98 43.13-0.98L43.13-0.98 43.72-0.98Q45.82-0.98 47.38-1.86L47.38-1.86Q48.02-2.22 48.43-2.99 48.85-3.76 48.85-4.71L48.85-4.71 48.85-30.54Q48.85-32.06 46.89-32.86L46.89-32.86Q45.53-33.45 43.99-33.45L43.99-33.45 43.45-33.45Q43.26-33.45 43.26-33.64L43.26-33.64 43.26-34.23Q43.26-34.42 43.45-34.42L43.45-34.42 59.98-34.42Q60.18-34.42 60.18-34.23L60.18-34.23 60.18-33.64Q60.18-33.45 59.98-33.45L59.98-33.45 58.93-33.45Q56.42-33.45 54.49-32.74L54.49-32.74Q53.93-32.54 53.77-32.09 53.61-31.64 53.61-30.54L53.61-30.54 53.61-3.47Q53.66-3.05 54.05-2.69 54.44-2.32 54.93-2.32L54.93-2.32 64.57-2.32Q66.74-2.32 68.84-4.88L68.84-4.88Q69.4-5.57 70.23-6.7 71.06-7.84 71.26-7.98L71.26-7.98Q72.04-8.57 72.04-7.96L72.04-7.96Q72.04-7.81 71.97-7.67L71.97-7.67 68.28-0.44Q68.06 0 67.77 0L67.77 0Z" opacity="1" transform="matrix(1,0,0,1,0,0)" fill="#ff4057" class="wordmark-text-0" data-fill-palette-color="primary" id="text-0"></path></svg></g></svg></g></svg></g></svg></g><g transform="matrix(1,0,0,1,0,9.038700539409433)"><svg viewBox="0 0 331.93212009177813 229.12259892118112" height="229.12259892118112" width="331.93212009177813"><g><svg version="1.1" xmlns="http://www.w3.org/2000/svg" xmlns:xlink="http://www.w3.org/1999/xlink" x="0" y="0" viewBox="0.000719896123889896 15.488235293399876 99.99728010387611 69.02506661938718" enable-background="new 0 0 100 100" xml:space="preserve" height="229.12259892118112" width="331.93212009177813" class="icon-icon-0" data-fill-palette-color="accent" id="icon-0"><path d="M96.359 15.578c0.483 0.364-1.021 4.662 1.617 4.046-0.928 2.6-3.319 2.664-3.641 5.257-0.48 3.892 3.684 6.832 5.663 9.305-1.108 4.01-6.571 4.383-9.306 1.617-2.699 0.595-5.217-0.259-7.278 0.81-4.985 2.583-2.819 11.989-4.854 18.202-1.859 5.68-5.606 6.752-6.877 10.517 0.789 3.487-0.203 6.599 0.404 9.306 0.652 2.9 3.829 4.34 3.643 7.28-0.652 0.604-2.029-0.351-3.643 0-0.773-2.058-1.865-3.799-3.236-5.259-0.218-2.612 0.471-6.133-0.402-8.09-3.342 4.345-0.76 11.592 2.427 14.158-5.765 2.053-7.634-5.22-6.067-10.518-1.672-2.777-4.115-4.784-3.641-9.708-3.398-0.585-6.609 1.216-10.111 1.616-9.477 1.09-19.491-1.128-27.911-2.021-1.769 3.436-2.413 8.178-1.618 12.54 0.762 4.169 5.063 6.873 6.067 9.708-9.663 1.771-7.412-10.852-12.539-14.562 0.238-2.998 0.995-5.479 0.81-8.899-1.693 3.521-5.769 8.073-6.067 12.943-0.226 3.677 2.116 5.921 3.236 9.304-1.485 0-2.967 0-4.45 0-0.71-2.271-0.851-3.328-0.81-6.473 0.046-3.55-1.861-8.068-1.617-10.921 0.221-2.579 2.68-4.815 2.831-7.279 0.17-2.768-1.577-6.098-2.428-8.899-0.849-2.803-1.473-5.962-3.64-7.686-0.87 12.36 2.372 24.366 0.809 34.785-3.236-1.14-2.022-5.468-2.022-8.091 0-5.69-0.108-10.68-0.404-16.584-0.434-8.685-2.702-17.604 0-22.649 12.972-4.323 29.737-0.416 47.326-1.214 8.604-0.391 18.312-0.407 23.46-1.618 2.501-0.589 4.492-2.761 7.281-2.022-0.003-2.021-2.104-3.644-0.811-5.663 2.035 0.122 3.016 1.3 4.854 1.618 2.467-1.983 3.336-5.564 8.494-4.854-0.779 1.513-4.063 0.522-3.642 3.236C91.165 19.545 95.564 18.295 96.359 15.578z" fill="#001f3f" data-fill-palette-color="accent"></path></svg></g></svg></g></svg></g><defs></defs></svg><rect width="395.52" height="127.21946539710623" fill="none" stroke="none" visibility="hidden"></rect></g></svg></g></svg>