<?xml version="1.0" standalone="no"?>
<!DOCTYPE svg PUBLIC "-//W3C//DTD SVG 20010904//EN"
 "http://www.w3.org/TR/2001/REC-SVG-20010904/DTD/svg10.dtd">
<svg version="1.0" xmlns="http://www.w3.org/2000/svg"
 width="569.000000pt" height="569.000000pt" viewBox="0 0 569.000000 569.000000"
 preserveAspectRatio="xMidYMid meet">

<g transform="translate(0.000000,569.000000) scale(0.100000,-0.100000)"
fill="#000000" stroke="none">
<path d="M4335 4821 c-10 -17 10 -20 35 -5 l25 13 -27 1 c-15 0 -29 -4 -33 -9z"/>
<path d="M4450 4820 c-13 -8 -12 -10 3 -10 9 0 17 5 17 10 0 12 -1 12 -20 0z"/>
<path d="M4268 4804 c-5 -4 -8 -16 -8 -28 0 -14 3 -17 11 -9 6 6 9 19 7 28 -1
9 -6 13 -10 9z"/>
<path d="M1406 4748 c-3 -29 -8 -110 -11 -180 -5 -103 -4 -128 7 -129 34 -2
53 -9 65 -25 12 -16 13 -17 13 -1 0 9 -4 17 -9 17 -4 0 -6 11 -3 25 2 14 0 25
-5 25 -6 0 -8 11 -5 25 2 14 8 22 12 20 14 -8 8 57 -7 94 -11 26 -11 32 -1 29
7 -3 15 -15 19 -29 6 -19 7 -20 8 -5 1 11 -6 28 -16 38 -9 11 -11 18 -5 18 7
0 12 7 12 15 0 8 -7 15 -15 15 -17 0 -20 16 -5 25 26 16 0 75 -34 75 -10 0
-16 -15 -20 -52z m51 -10 c-3 -8 -6 -5 -6 6 -1 11 2 17 5 13 3 -3 4 -12 1 -19z
m0 -185 c-3 -10 -5 -4 -5 12 0 17 2 24 5 18 2 -7 2 -21 0 -30z m0 -105 c-3 -8
-6 -5 -6 6 -1 11 2 17 5 13 3 -3 4 -12 1 -19z"/>
<path d="M4220 4701 c0 -12 5 -21 10 -21 6 0 10 6 10 14 0 8 -4 18 -10 21 -5
3 -10 -3 -10 -14z"/>
<path d="M973 4483 c4 -3 1 -13 -6 -22 -11 -14 -10 -14 5 -2 16 12 16 31 1 31
-4 0 -3 -3 0 -7z"/>
<path d="M872 4398 c0 -56 5 -82 22 -110 18 -31 25 -35 36 -25 8 6 7 3 -3 -9
-13 -16 -17 -39 -17 -98 0 -68 2 -77 18 -74 13 3 17 14 17 50 0 25 2 45 5 43
3 -2 6 16 7 40 2 47 26 103 49 112 22 8 16 47 -11 71 -14 12 -30 22 -35 22 -6
0 -10 5 -10 10 0 6 -8 10 -19 10 -10 0 -24 7 -31 15 -23 28 -29 16 -28 -57z"/>
<path d="M1396 4369 c-2 -8 -4 -21 -4 -29 0 -8 -4 -44 -8 -78 -8 -71 -2 -81
44 -74 24 3 27 7 25 40 -4 63 -20 123 -36 140 -14 13 -17 13 -21 1z"/>
<path d="M1460 4227 c0 -21 15 -36 28 -29 8 6 6 13 -8 25 -13 11 -20 13 -20 4z"/>
<path d="M4943 3910 l2 -130 -27 0 c-26 0 -28 -3 -28 -44 l0 -44 113 64 c61
36 117 72 124 81 19 24 10 79 -17 107 -13 15 -27 26 -31 26 -5 0 -34 16 -66
35 -32 19 -61 35 -65 35 -4 0 -6 -59 -5 -130z"/>
<path d="M910 3898 c0 -114 -3 -138 -19 -165 -11 -17 -17 -34 -14 -37 8 -7
123 -8 123 -1 0 3 -10 19 -22 36 -20 27 -23 44 -25 162 -3 123 -4 132 -23 135
-19 3 -20 -2 -20 -130z"/>
<path d="M4235 3920 c-61 -35 -75 -54 -75 -102 0 -35 4 -41 51 -70 43 -26 49
-33 37 -42 -13 -9 -9 -15 24 -36 21 -13 45 -35 53 -47 9 -13 21 -20 30 -17 12
5 15 25 15 90 l0 84 -32 0 -33 0 2 85 c1 61 -2 85 -10 84 -7 -1 -34 -14 -62
-29z"/>
<path d="M1571 3489 c-62 -67 -10 -152 82 -135 69 13 85 78 34 134 -28 30 -88
30 -116 1z m89 -13 c19 -23 8 -61 -18 -64 -45 -7 -72 46 -34 67 24 14 38 13
52 -3z"/>
<path d="M2223 3488 c-12 -13 -24 -38 -28 -55 -15 -72 91 -112 150 -58 19 19
25 32 21 48 -3 12 -6 27 -6 34 0 7 -10 21 -22 33 -30 28 -88 27 -115 -2z m81
-11 c11 -8 17 -23 14 -38 -2 -20 -8 -24 -38 -24 -30 0 -36 4 -38 24 -4 22 18
51 38 51 3 0 14 -6 24 -13z"/>
<path d="M1219 1949 c-9 -18 -7 -27 10 -50 12 -15 21 -37 21 -48 0 -48 65 -38
75 11 12 61 16 68 47 76 18 4 33 13 36 20 3 9 -21 12 -87 12 -82 0 -91 -2
-102 -21z"/>
<path d="M1460 1930 c0 -5 -10 -19 -22 -30 -22 -20 -22 -22 -5 -51 22 -39 22
-48 -5 -76 -23 -25 -13 -30 25 -12 16 7 35 8 59 1 48 -13 66 -2 50 32 -9 21
-8 29 10 52 21 26 21 27 3 40 -10 8 -22 14 -27 14 -4 0 -8 7 -8 15 0 11 -7 14
-24 9 -13 -3 -27 -1 -30 5 -9 14 -26 14 -26 1z"/>
<path d="M1728 1854 c-31 -16 -33 -22 -17 -58 10 -20 9 -30 -5 -50 -23 -36
-20 -46 13 -46 16 0 34 -6 41 -14 16 -20 37 -10 55 28 15 31 14 36 -12 94 -15
34 -32 62 -38 62 -5 -1 -22 -8 -37 -16z"/>
<path d="M1471 1682 c-43 -12 -59 -13 -84 -4 -36 14 -43 7 -53 -46 -4 -21 0
-54 13 -91 14 -43 15 -58 6 -57 -7 1 -16 5 -19 9 -13 12 -24 8 -18 -7 3 -8 19
-19 35 -25 36 -13 48 -39 84 -193 l27 -116 61 -7 c83 -9 133 -24 153 -46 28
-31 40 -165 25 -281 -9 -71 -9 -104 -2 -111 8 -8 11 6 11 46 0 53 2 57 27 63
38 10 56 -18 50 -78 l-4 -47 26 34 c42 56 101 61 101 8 0 -16 -11 -39 -27 -55
l-27 -28 31 0 c41 0 91 57 139 158 34 69 75 225 63 237 -3 3 -25 -2 -49 -10
-23 -8 -67 -15 -96 -15 l-54 0 0 -39 c0 -55 -21 -143 -38 -163 -8 -10 -27 -18
-41 -18 -19 0 -22 3 -12 9 8 5 21 7 30 4 13 -4 13 -3 2 5 -12 8 -12 20 -2 69
8 38 9 67 3 83 -8 20 -10 15 -17 -40 -10 -79 -9 -72 -18 -87 -5 -7 -14 -13
-20 -13 -7 0 -6 4 3 10 8 5 10 10 4 10 -5 0 -15 -5 -22 -12 -15 -15 -15 -4 0
60 9 39 8 64 -2 112 -7 33 -16 63 -21 65 -4 3 -17 34 -29 70 -18 55 -25 64
-48 67 -38 4 -61 48 -43 81 9 16 11 38 7 59 -17 80 -16 83 37 86 56 4 67 -11
43 -57 -18 -34 -21 -77 -6 -86 6 -3 10 -1 10 5 0 7 6 10 12 8 7 -3 16 -26 20
-53 8 -55 27 -80 55 -71 22 7 43 45 43 77 0 11 -9 37 -20 59 -36 70 -34 72 85
68 58 -2 105 0 105 3 0 10 -86 126 -99 133 -6 4 -11 1 -11 -7 0 -8 -8 -18 -17
-21 -11 -5 -31 9 -65 45 -26 28 -48 57 -48 64 0 25 -52 51 -89 45 -28 -4 -36
-11 -42 -33 -4 -16 -4 -40 2 -53 17 -46 20 -82 6 -80 -25 4 -35 17 -42 59 -4
23 -10 47 -14 52 -9 16 -18 -57 -10 -87 4 -16 4 -28 -2 -28 -5 0 -9 6 -9 13 0
9 -2 9 -9 -1 -6 -10 -12 -5 -21 18 -12 30 -9 112 6 168 7 26 2 26 -75 4z"/>
<path d="M1837 1673 c-4 -6 -4 -19 -1 -28 4 -10 1 -21 -7 -27 -11 -7 -11 -11
-1 -15 6 -2 12 -15 12 -28 0 -12 7 -28 15 -35 13 -11 15 -8 16 16 2 44 4 54 9
52 9 -3 50 22 50 30 0 4 -18 6 -39 4 -35 -4 -40 -1 -43 20 -2 14 -6 19 -11 11z"/>
<path d="M1224 1639 c-3 -6 5 -23 18 -37 14 -15 32 -38 41 -52 26 -37 20 -13
-10 47 -28 54 -36 62 -49 42z"/>
<path d="M3677 1412 c-24 -26 -3 -102 43 -153 17 -18 72 -39 105 -39 42 0 58
-32 53 -107 -4 -66 -3 -70 40 -136 48 -75 73 -91 160 -103 106 -14 163 19 125
73 -50 71 -53 78 -53 148 0 39 -4 75 -8 82 -4 7 -28 16 -52 22 -53 12 -70 32
-70 82 0 21 -5 50 -10 64 l-10 26 -25 -19 c-33 -26 -101 -20 -130 11 -62 67
-133 88 -168 49z"/>
<path d="M2190 1400 c-19 -4 -57 -11 -84 -15 -56 -8 -52 -20 17 -45 l42 -16 0
-54 c0 -29 5 -55 10 -57 6 -2 28 14 49 36 33 34 37 41 26 61 -15 28 -6 50 20
50 18 0 39 25 29 35 -10 9 -78 13 -109 5z"/>
<path d="M4221 1392 c-49 -24 -58 -44 -38 -76 29 -44 57 -56 102 -46 47 11 75
41 75 82 0 24 -6 32 -35 44 -45 18 -63 18 -104 -4z"/>
<path d="M1249 1372 c-53 -34 -99 -86 -99 -113 0 -10 -4 -19 -9 -19 -10 0 -46
-82 -56 -128 -7 -33 -58 -108 -103 -151 -14 -13 -45 -32 -69 -42 -24 -10 -43
-23 -43 -29 0 -6 18 -46 40 -90 l40 -80 41 0 42 0 -27 27 c-18 18 -26 35 -24
52 4 36 34 38 69 5 l29 -28 0 36 c0 39 19 62 47 56 13 -2 19 -15 23 -45 l5
-42 26 23 c24 21 26 29 31 135 7 137 17 156 103 184 l58 20 -7 106 c-3 58 -9
116 -12 129 -9 31 -49 29 -105 -6z"/>
<path d="M1926 1293 c3 -21 10 -42 15 -47 5 -6 9 -23 9 -38 0 -15 5 -28 10
-28 18 0 11 -46 -10 -65 -11 -10 -20 -24 -20 -32 0 -20 28 -16 42 6 11 17 13
18 23 4 15 -21 52 -2 65 33 5 13 16 24 25 24 23 0 18 37 -7 55 -14 9 -23 26
-23 43 0 25 -3 27 -36 24 -33 -3 -38 0 -50 27 -8 18 -21 31 -32 31 -15 0 -17
-6 -11 -37z"/>
<path d="M2175 850 c-3 -5 -1 -10 4 -10 6 0 11 5 11 10 0 6 -2 10 -4 10 -3 0
-8 -4 -11 -10z"/>
<path d="M4310 801 c0 -5 7 -12 16 -15 22 -9 24 -8 24 9 0 8 -9 15 -20 15 -11
0 -20 -4 -20 -9z"/>
<path d="M1205 730 c-3 -5 1 -10 9 -10 9 0 16 5 16 10 0 6 -4 10 -9 10 -6 0
-13 -4 -16 -10z"/>
<path d="M1233 622 c55 -57 3 -101 -54 -46 l-27 26 2 -32 c1 -27 8 -34 55 -55
89 -42 162 -56 269 -53 82 3 97 6 100 20 3 16 1 17 -35 2 -49 -21 -132 -14
-195 16 -41 19 -49 28 -71 83 -19 49 -30 63 -48 65 -24 4 -24 4 4 -26z"/>
</g>
</svg>
